<svg class="animated" id="freepik_stories-mobile-development" xmlns="http://www.w3.org/2000/svg" viewBox="0 0 500 500" version="1.1" xmlns:xlink="http://www.w3.org/1999/xlink" xmlns:svgjs="http://svgjs.com/svgjs"><style>svg#freepik_stories-mobile-development:not(.animated) .animable {opacity: 0;}svg#freepik_stories-mobile-development.animated #freepik--background-complete--inject-73 {animation: 1.5s Infinite  linear wind;animation-delay: 0s;}svg#freepik_stories-mobile-development.animated #freepik--Gears--inject-73 {animation: 1.5s Infinite  linear wind;animation-delay: 0s;}svg#freepik_stories-mobile-development.animated #freepik--Device--inject-73 {animation: 1.5s Infinite  linear floating;animation-delay: 0s;}svg#freepik_stories-mobile-development.animated #freepik--Interface--inject-73 {animation: 1.5s Infinite  linear floating;animation-delay: 0s;}            @keyframes wind {                0% {                    transform: rotate( 0deg );                }                25% {                    transform: rotate( 1deg );                }                75% {                    transform: rotate( -1deg );                }            }                    @keyframes floating {                0% {                    opacity: 1;                    transform: translateY(0px);                }                50% {                    transform: translateY(-10px);                }                100% {                    opacity: 1;                    transform: translateY(0px);                }            }        .animator-hidden { display: none; }</style><g id="freepik--background-complete--inject-73" class="animable animator-active" style="transform-origin: 250px 228.23px;"><rect x="416.78" y="398.49" width="33.12" height="0.25" style="fill: rgb(235, 235, 235); transform-origin: 433.34px 398.615px;" id="elm2j1f6r65ao" class="animable"></rect><rect x="322.53" y="401.21" width="8.69" height="0.25" style="fill: rgb(235, 235, 235); transform-origin: 326.875px 401.335px;" id="elf6g1sgri86h" class="animable"></rect><rect x="396.59" y="389.21" width="19.19" height="0.25" style="fill: rgb(235, 235, 235); transform-origin: 406.185px 389.335px;" id="elwr3pyc458w" class="animable"></rect><rect x="52.46" y="390.89" width="43.19" height="0.25" style="fill: rgb(235, 235, 235); transform-origin: 74.055px 391.015px;" id="eldpld2r0ltg7" class="animable"></rect><rect x="104.56" y="390.89" width="6.33" height="0.25" style="fill: rgb(235, 235, 235); transform-origin: 107.725px 391.015px;" id="ele3p3au0tahn" class="animable"></rect><rect x="131.47" y="395.11" width="93.68" height="0.25" style="fill: rgb(235, 235, 235); transform-origin: 178.31px 395.235px;" id="el31lju3vfoln" class="animable"></rect><path d="M237,337.8H43.92a5.71,5.71,0,0,1-5.71-5.71V60.66A5.71,5.71,0,0,1,43.92,55H237a5.71,5.71,0,0,1,5.71,5.71V332.09A5.71,5.71,0,0,1,237,337.8ZM43.92,55.2a5.47,5.47,0,0,0-5.46,5.46V332.09a5.47,5.47,0,0,0,5.46,5.46H237a5.47,5.47,0,0,0,5.46-5.46V60.66A5.47,5.47,0,0,0,237,55.2Z" style="fill: rgb(235, 235, 235); transform-origin: 140.46px 196.4px;" id="el5ppa1r9gs3" class="animable"></path><path d="M453.31,337.8H260.21a5.72,5.72,0,0,1-5.71-5.71V60.66A5.72,5.72,0,0,1,260.21,55h193.1A5.71,5.71,0,0,1,459,60.66V332.09A5.71,5.71,0,0,1,453.31,337.8ZM260.21,55.2a5.47,5.47,0,0,0-5.46,5.46V332.09a5.47,5.47,0,0,0,5.46,5.46h193.1a5.47,5.47,0,0,0,5.46-5.46V60.66a5.47,5.47,0,0,0-5.46-5.46Z" style="fill: rgb(235, 235, 235); transform-origin: 356.75px 196.4px;" id="elg10ub7uw15" class="animable"></path><rect y="382.4" width="500" height="0.25" style="fill: rgb(235, 235, 235); transform-origin: 250px 382.525px;" id="elk0isrxds4lp" class="animable"></rect><rect x="71.57" y="95.35" width="120.8" height="286.73" style="fill: rgb(235, 235, 235); transform-origin: 131.97px 238.715px;" id="eltzqyqed4eq" class="animable"></rect><rect x="76.7" y="100.54" width="110.53" height="281.54" style="fill: rgb(245, 245, 245); transform-origin: 131.965px 241.31px;" id="el1vkifp4sx1t" class="animable"></rect><rect x="85.07" y="137.68" width="44.31" height="103.11" style="fill: rgb(250, 250, 250); transform-origin: 107.225px 189.235px;" id="el31g6jnnfoq" class="animable"></rect><rect x="135.15" y="137.68" width="44.31" height="103.11" style="fill: rgb(250, 250, 250); transform-origin: 157.305px 189.235px;" id="elblavu9yfb4f" class="animable"></rect><rect x="85.07" y="271.98" width="94.39" height="103.11" style="fill: rgb(250, 250, 250); transform-origin: 132.265px 323.535px;" id="ellpplmeqdv" class="animable"></rect><path d="M102.35,108h59.83a17.28,17.28,0,0,1,17.28,17.28v7.05a0,0,0,0,1,0,0H85.07a0,0,0,0,1,0,0V125.3A17.28,17.28,0,0,1,102.35,108Z" style="fill: rgb(250, 250, 250); transform-origin: 132.265px 120.165px;" id="elpt8xlw17fy" class="animable"></path><rect x="85.07" y="245.43" width="8.06" height="21" style="fill: rgb(230, 230, 230); transform-origin: 89.1px 255.93px;" id="elyhit4yyelza" class="animable"></rect><g id="el1rms2p1fkxw"><rect x="93.12" y="245.43" width="1.58" height="21" style="fill: rgb(224, 224, 224); transform-origin: 93.91px 255.93px; transform: rotate(180deg);" class="animable" id="elfottv2um31o"></rect></g><path d="M90.46,253.68a3.4,3.4,0,1,1-3.4-3.39A3.4,3.4,0,0,1,90.46,253.68Z" style="fill: rgb(224, 224, 224); transform-origin: 87.06px 253.69px;" id="el6wq6q89r7lr" class="animable"></path><rect x="88.06" y="259.56" width="1.75" height="4.25" style="fill: rgb(224, 224, 224); transform-origin: 88.935px 261.685px;" id="eldp848flayde" class="animable"></rect><circle cx="84.07" cy="253.68" r="4.75" style="fill: rgb(235, 235, 235); transform-origin: 84.07px 253.68px;" id="eliulx3xmamto" class="animable"></circle><path d="M378.29,300.18s13.8-13,13.57-21.55-8.62,11.48-8.82,7.27,9.54-16.3,9.95-24.56-9.91,14.82-10.46,11,9.45-21.05,9.37-27.05-8.74,15.21-10,11.46,7.21-17.77,5-28.26-6.77,17-7.47,13.54,5.16-21.43,1-28.59-3,19.39-4.39,16.3-2.27-18.31-7.54-23.49,1.39,15.33-.23,16.37-9.14-14.24-11.17-11.34,10.69,19.31,10.81,23.23-10.26-6.55-11.19-2.3,14.45,10.94,15.24,15-12.8-3.21-12.74,1,12.93,6.44,13.7,11.2-12.61-3.45-11.87,2.14,9.73,4.49,10.76,10-9.3-.77-8.91,4.46,10.71,5.81,11.79,9.8-9.85-1.86-9.55,2.38S376.14,292.91,378.29,300.18Z" style="fill: rgb(224, 224, 224); transform-origin: 374.841px 252.796px;" id="eljdqme47bzt" class="animable"></path><path d="M377.15,318.68a163.48,163.48,0,0,0,2.9-29.2c.52-21.29-2.16-42.76-9.25-62.89-.52-1.47-2.91-.94-2.39.54,7,20,9.7,41.17,9.19,62.27A160,160,0,0,1,374.81,318c-.31,1.53,2,2.27,2.34.73Z" style="fill: rgb(240, 240, 240); transform-origin: 374.225px 272.649px;" id="elbfclcsv76wq" class="animable"></path><path d="M382.33,304.58s-9.59-18.36-6.53-30.8,5.3,16.52,6.73,9.59S378,263,383.55,253s.41,18.76,4.08,12.44S387,243,392.12,236.86s1.63,13.26,4.07,10.2,1.84-17.33,5.72-20.6.4,13.67,2.44,10.4,6.73-18.15,13.26-20-4.28,9.17,0,8.15,14.07-3.26,14.89,1.23-20.6,9.38-23.05,14.89,9.79-4.29,12-.21-18.77,9.79-20.4,15.91,17.34-5.1,16.93,1.23-21.83,7.54-22.85,13.05,17.55-6.12,16.93-.61-19.17,9.79-20.39,15.7,13.66-5.5,14.07-.81S382.33,304.58,382.33,304.58Z" style="fill: rgb(235, 235, 235); transform-origin: 403.86px 260.615px;" id="elrl3dnm3xgha" class="animable"></path><path d="M368.77,304s9.28-16.55,6.51-24.63S370.49,293,369,289s4.23-18.4,2.15-26.4-5,17.1-6.71,13.56,2.73-22.9.86-28.6-3.8,17.13-6.13,13.92,1.57-19.11-3.64-28.48-1.37,18.28-3.08,15.16-1.48-22-7.58-27.58,3,19.39.69,16.86-7.65-16.79-14.23-20.16,5.91,14.22,4.68,15.69-13-10.85-14.05-7.48,16,15.23,17.26,18.94-11.75-3.19-11.37,1.15,17.07,6.12,19,9.76-13.17.77-11.86,4.75,14.26,2.28,16.42,6.59-13.06.48-10.69,5.59,10.63,1.38,13.26,6.33-9.1,2-7.16,6.92,11.95,2.34,14.17,5.83-10,1.16-8.4,5.12S364.55,297.74,368.77,304Z" style="fill: rgb(235, 235, 235); transform-origin: 348.855px 260.426px;" id="el9fk9x03dbmw" class="animable"></path><path d="M373.22,322a164.55,164.55,0,0,0-6-28.73c-5.88-20.47-14.85-40.16-27.64-57.26-.93-1.24-3.06,0-2.11,1.24,12.67,16.94,21.57,36.38,27.39,56.67A161.09,161.09,0,0,1,370.77,322c.15,1.55,2.6,1.56,2.45,0Z" style="fill: rgb(240, 240, 240); transform-origin: 355.229px 279.331px;" id="eljsaweh9x4r" class="animable"></path><path d="M381.92,319.67a175.93,175.93,0,0,1,3-25.37c2.94-16.17,7.63-32.69,16.67-46.58,5.15-7.93,11.9-14.72,20.53-18.77,1.43-.67.19-2.78-1.23-2.12-15.44,7.26-24.69,22.71-30.56,38.09-5.45,14.32-8.47,29.57-10.07,44.78-.35,3.31-.66,6.64-.77,10-.05,1.58,2.39,1.57,2.45,0Z" style="fill: rgb(245, 245, 245); transform-origin: 401.122px 273.793px;" id="elozwbayskey" class="animable"></path><polygon points="401.9 314.92 351.32 314.92 357.03 369.03 357.03 382.08 396.19 382.08 396.19 369.03 401.9 314.92" style="fill: rgb(235, 235, 235); transform-origin: 376.61px 348.5px;" id="eldr4zfhrtxpp" class="animable"></polygon><rect x="377.15" y="148.51" width="36.33" height="28.64" style="fill: rgb(240, 240, 240); transform-origin: 395.315px 162.83px;" id="elb88alliahs" class="animable"></rect><rect x="413.48" y="148.51" width="1.96" height="28.64" style="fill: rgb(224, 224, 224); transform-origin: 414.46px 162.83px;" id="el7lgkjkczqza" class="animable"></rect><rect x="380.86" y="151.43" width="28.92" height="22.8" style="fill: rgb(250, 250, 250); transform-origin: 395.32px 162.83px;" id="elzz7q5n329h" class="animable"></rect><rect x="383.24" y="153.31" width="24.16" height="19.05" style="fill: rgb(235, 235, 235); transform-origin: 395.32px 162.835px;" id="el7dlofpmfkp2" class="animable"></rect><rect x="329.67" y="102.03" width="39.99" height="50.71" style="fill: rgb(235, 235, 235); transform-origin: 349.665px 127.385px;" id="ellxs1b6iq6i9" class="animable"></rect><rect x="369.66" y="102.03" width="1.91" height="50.71" style="fill: rgb(224, 224, 224); transform-origin: 370.615px 127.385px;" id="elkcvk3zp33yi" class="animable"></rect><rect x="333.75" y="107.2" width="31.83" height="40.37" style="fill: rgb(245, 245, 245); transform-origin: 349.665px 127.385px;" id="eljtbxlhowpy" class="animable"></rect><rect x="336.37" y="110.53" width="26.59" height="33.73" style="fill: rgb(250, 250, 250); transform-origin: 349.665px 127.395px;" id="el9nqar8s9rve" class="animable"></rect><path d="M354.93,122.43s-4.7,6.65-7.12,6.54c-2.21-.1-6-6.54-6-6.54s4.7-6.65,7.12-6.54C351.17,116,354.93,122.43,354.93,122.43Z" style="fill: rgb(235, 235, 235); transform-origin: 348.37px 122.43px;" id="el9yph1llo9is" class="animable"></path><path d="M342.63,137.15c-1.39-2.68,5.87-8.31,8.89-8.18,2.77.12,8.54,5.63,7.46,8.18C357.4,140.92,344.51,140.78,342.63,137.15Z" style="fill: rgb(240, 240, 240); transform-origin: 350.784px 134.447px;" id="eliua1d5h4odh" class="animable"></path><ellipse cx="402.36" cy="108.23" rx="18.05" ry="25.17" style="fill: rgb(224, 224, 224); transform-origin: 402.36px 108.23px;" id="elrzuu7rw8h1" class="animable"></ellipse><ellipse cx="400.21" cy="108.23" rx="18.05" ry="25.17" style="fill: rgb(235, 235, 235); transform-origin: 400.21px 108.23px;" id="eledszpwcbpp4" class="animable"></ellipse><ellipse cx="400.21" cy="108.23" rx="15.38" ry="21.44" style="fill: rgb(230, 230, 230); transform-origin: 400.21px 108.23px;" id="eljj00mo5z8xs" class="animable"></ellipse><ellipse cx="400.21" cy="108.23" rx="13.74" ry="19.16" style="fill: rgb(250, 250, 250); transform-origin: 400.21px 108.23px;" id="elfnldxa1kfj5" class="animable"></ellipse><path d="M395.9,118.64A13.81,13.81,0,0,1,391.66,108s5.67-.66,5.5,8.84c0,0,6.39-6.63,4.5-10.84-2.94-6.56-2.94-6.56-.86-10.66,0,0,5.57,2.25,3,9.83A23.8,23.8,0,0,1,403,111s5.61-5.37,7.41-1.85c0,0-3,5.69-7.41,3.32C403,112.44,398,121.16,395.9,118.64Z" style="fill: rgb(235, 235, 235); transform-origin: 401.027px 107.219px;" id="el4hegpypur8x" class="animable"></path></g><g id="freepik--Shadow--inject-73" class="animable animator-hidden" style="transform-origin: 245.18px 412.39px;"><ellipse id="freepik--path--inject-73" cx="245.18" cy="412.39" rx="193.89" ry="11.32" style="fill: rgb(245, 245, 245); transform-origin: 245.18px 412.39px;" class="animable"></ellipse></g><g id="freepik--Gears--inject-73" class="animable" style="transform-origin: 203.48px 247.295px;"><path d="M298.23,316.33c0-.84-.05-1.67-.12-2.49l4.88-2.71a33.26,33.26,0,0,0-1.81-6.77l-5.58.1a28,28,0,0,0-2.49-4.32l2.87-4.78a33.64,33.64,0,0,0-5-4.95l-4.78,2.87a28,28,0,0,0-4.31-2.5l.09-5.57a33.36,33.36,0,0,0-6.76-1.82l-2.71,4.88c-.83-.07-1.65-.11-2.49-.11s-1.67,0-2.49.11l-2.71-4.88a33.28,33.28,0,0,0-6.77,1.82l.09,5.57a28.44,28.44,0,0,0-4.31,2.5l-4.78-2.87a33.09,33.09,0,0,0-5,4.95l2.86,4.78a28,28,0,0,0-2.49,4.32l-5.57-.1a33.28,33.28,0,0,0-1.82,6.77l4.88,2.71c-.07.82-.11,1.65-.11,2.49s0,1.67.11,2.49l-4.88,2.71a33.19,33.19,0,0,0,1.82,6.76l5.57-.09a27.45,27.45,0,0,0,2.49,4.31l-2.86,4.78a33.64,33.64,0,0,0,5,5l4.78-2.87a29.31,29.31,0,0,0,4.31,2.5l-.09,5.57a32.63,32.63,0,0,0,6.77,1.81l2.71-4.88q1.23.12,2.49.12c.84,0,1.66,0,2.49-.12l2.71,4.88a32.71,32.71,0,0,0,6.76-1.81l-.09-5.57a28.8,28.8,0,0,0,4.31-2.5l4.78,2.87a34.2,34.2,0,0,0,5-5l-2.87-4.78a27.45,27.45,0,0,0,2.49-4.31l5.58.09a33.17,33.17,0,0,0,1.81-6.76l-4.88-2.71C298.18,318,298.23,317.17,298.23,316.33Zm-28.17,19.12a19.13,19.13,0,1,1,19.12-19.12A19.12,19.12,0,0,1,270.06,335.45Z" style="fill: #003366; transform-origin: 270.01px 316.345px;" id="elxbq6ligpik" class="animable"></path><g id="elvtevp30lu9"><path d="M298.23,316.33c0-.84-.05-1.67-.12-2.49l4.88-2.71a33.26,33.26,0,0,0-1.81-6.77l-5.58.1a28,28,0,0,0-2.49-4.32l2.87-4.78a33.64,33.64,0,0,0-5-4.95l-4.78,2.87a28,28,0,0,0-4.31-2.5l.09-5.57a33.36,33.36,0,0,0-6.76-1.82l-2.71,4.88c-.83-.07-1.65-.11-2.49-.11s-1.67,0-2.49.11l-2.71-4.88a33.28,33.28,0,0,0-6.77,1.82l.09,5.57a28.44,28.44,0,0,0-4.31,2.5l-4.78-2.87a33.09,33.09,0,0,0-5,4.95l2.86,4.78a28,28,0,0,0-2.49,4.32l-5.57-.1a33.28,33.28,0,0,0-1.82,6.77l4.88,2.71c-.07.82-.11,1.65-.11,2.49s0,1.67.11,2.49l-4.88,2.71a33.19,33.19,0,0,0,1.82,6.76l5.57-.09a27.45,27.45,0,0,0,2.49,4.31l-2.86,4.78a33.64,33.64,0,0,0,5,5l4.78-2.87a29.31,29.31,0,0,0,4.31,2.5l-.09,5.57a32.63,32.63,0,0,0,6.77,1.81l2.71-4.88q1.23.12,2.49.12c.84,0,1.66,0,2.49-.12l2.71,4.88a32.71,32.71,0,0,0,6.76-1.81l-.09-5.57a28.8,28.8,0,0,0,4.31-2.5l4.78,2.87a34.2,34.2,0,0,0,5-5l-2.87-4.78a27.45,27.45,0,0,0,2.49-4.31l5.58.09a33.17,33.17,0,0,0,1.81-6.76l-4.88-2.71C298.18,318,298.23,317.17,298.23,316.33Zm-28.17,19.12a19.13,19.13,0,1,1,19.12-19.12A19.12,19.12,0,0,1,270.06,335.45Z" style="fill: rgb(255, 255, 255); opacity: 0.5; transform-origin: 270.01px 316.345px;" class="animable" id="elf70nojeexbh"></path></g><path d="M148.41,169.21c0-.61,0-1.21-.09-1.81l3.55-2a24.61,24.61,0,0,0-1.32-4.92l-4.05.07a19.5,19.5,0,0,0-1.82-3.13l2.09-3.48a24.5,24.5,0,0,0-3.6-3.6l-3.48,2.08a20.22,20.22,0,0,0-3.13-1.81l.06-4a23.09,23.09,0,0,0-4.91-1.32l-2,3.54c-.6-.05-1.2-.08-1.81-.08s-1.22,0-1.81.08l-2-3.54a23.18,23.18,0,0,0-4.92,1.32l.07,4a20.32,20.32,0,0,0-3.14,1.81l-3.47-2.08a24.57,24.57,0,0,0-3.61,3.6l2.09,3.48a20.28,20.28,0,0,0-1.82,3.13l-4-.07a24.61,24.61,0,0,0-1.32,4.92l3.55,2c0,.6-.08,1.2-.08,1.81s0,1.21.08,1.81L104,173a24.43,24.43,0,0,0,1.32,4.92l4-.07a20.86,20.86,0,0,0,1.82,3.14l-2.09,3.47a24.57,24.57,0,0,0,3.61,3.6l3.47-2.08a20.32,20.32,0,0,0,3.14,1.81l-.07,4.05a23.18,23.18,0,0,0,4.92,1.32l2-3.54c.59,0,1.2.08,1.81.08s1.21,0,1.81-.08l2,3.54a23.09,23.09,0,0,0,4.91-1.32l-.06-4.05a20.22,20.22,0,0,0,3.13-1.81l3.48,2.08a24.5,24.5,0,0,0,3.6-3.6L144.68,181a20,20,0,0,0,1.82-3.14l4.05.07a24.43,24.43,0,0,0,1.32-4.92l-3.55-2C148.37,170.42,148.41,169.82,148.41,169.21Zm-20.48,8.07a8.07,8.07,0,1,1,8.07-8.07A8.07,8.07,0,0,1,127.93,177.28Z" style="fill: #003366; transform-origin: 127.92px 169.225px;" id="elsfscni2p16l" class="animable"></path><g id="elockufacjaia"><path d="M148.41,169.21c0-.61,0-1.21-.09-1.81l3.55-2a24.61,24.61,0,0,0-1.32-4.92l-4.05.07a19.5,19.5,0,0,0-1.82-3.13l2.09-3.48a24.5,24.5,0,0,0-3.6-3.6l-3.48,2.08a20.22,20.22,0,0,0-3.13-1.81l.06-4a23.09,23.09,0,0,0-4.91-1.32l-2,3.54c-.6-.05-1.2-.08-1.81-.08s-1.22,0-1.81.08l-2-3.54a23.18,23.18,0,0,0-4.92,1.32l.07,4a20.32,20.32,0,0,0-3.14,1.81l-3.47-2.08a24.57,24.57,0,0,0-3.61,3.6l2.09,3.48a20.28,20.28,0,0,0-1.82,3.13l-4-.07a24.61,24.61,0,0,0-1.32,4.92l3.55,2c0,.6-.08,1.2-.08,1.81s0,1.21.08,1.81L104,173a24.43,24.43,0,0,0,1.32,4.92l4-.07a20.86,20.86,0,0,0,1.82,3.14l-2.09,3.47a24.57,24.57,0,0,0,3.61,3.6l3.47-2.08a20.32,20.32,0,0,0,3.14,1.81l-.07,4.05a23.18,23.18,0,0,0,4.92,1.32l2-3.54c.59,0,1.2.08,1.81.08s1.21,0,1.81-.08l2,3.54a23.09,23.09,0,0,0,4.91-1.32l-.06-4.05a20.22,20.22,0,0,0,3.13-1.81l3.48,2.08a24.5,24.5,0,0,0,3.6-3.6L144.68,181a20,20,0,0,0,1.82-3.14l4.05.07a24.43,24.43,0,0,0,1.32-4.92l-3.55-2C148.37,170.42,148.41,169.82,148.41,169.21Zm-20.48,8.07a8.07,8.07,0,1,1,8.07-8.07A8.07,8.07,0,0,1,127.93,177.28Z" style="fill: rgb(255, 255, 255); opacity: 0.6; transform-origin: 127.92px 169.225px;" class="animable" id="eln0ov8usgf1"></path></g></g><g id="freepik--Device--inject-73" class="animable" style="transform-origin: 200.15px 257.445px;"><path d="M269.41,107.79h-26L217.26,407.1h26a24.27,24.27,0,0,0,23.7-21.79L289.3,129.58A19.65,19.65,0,0,0,269.41,107.79Z" style="fill: rgb(38, 50, 56); transform-origin: 253.339px 257.443px;" id="elpis9ku16x" class="animable"></path><path d="M237.91,407.1h-107A19.65,19.65,0,0,1,111,385.31l22.38-255.73a24.26,24.26,0,0,1,23.7-21.79h107A19.65,19.65,0,0,1,284,129.58L261.61,385.31A24.26,24.26,0,0,1,237.91,407.1Z" style="fill: #003366; transform-origin: 197.5px 257.445px;" id="el3x1drgbaq2s" class="animable"></path><path d="M263.66,112.79H235.85A4,4,0,0,0,232,116l-.18.87a9.87,9.87,0,0,1-9.44,7.72H195.92a7.94,7.94,0,0,1-8.09-7.72l0-.87a3.24,3.24,0,0,0-3.31-3.16H156.67a18.69,18.69,0,0,0-18.26,16.79L116,385.31a15.14,15.14,0,0,0,15.33,16.79h107a18.7,18.7,0,0,0,18.26-16.79L279,129.58A15.14,15.14,0,0,0,263.66,112.79Z" style="fill: #003366; transform-origin: 197.5px 257.445px;" id="el76poahyvdak" class="animable"></path><g id="el4awa9ccsznr"><path d="M263.66,112.79H235.85A4,4,0,0,0,232,116l-.18.87a9.87,9.87,0,0,1-9.44,7.72H195.92a7.94,7.94,0,0,1-8.09-7.72l0-.87a3.24,3.24,0,0,0-3.31-3.16H156.67a18.69,18.69,0,0,0-18.26,16.79L116,385.31a15.14,15.14,0,0,0,15.33,16.79h107a18.7,18.7,0,0,0,18.26-16.79L279,129.58A15.14,15.14,0,0,0,263.66,112.79Z" style="fill: rgb(255, 255, 255); opacity: 0.7; transform-origin: 197.5px 257.445px;" class="animable" id="ell5q940exuno"></path></g><g id="elbkft7y6zfr8"><g style="opacity: 0.2; transform-origin: 209.919px 115.625px;" class="animable" id="elnz90rfysq5i"><path d="M203.45,115.62a2.37,2.37,0,0,1-2.32,2.13,1.91,1.91,0,0,1-1.93-2.13,2.36,2.36,0,0,1,2.31-2.12A1.92,1.92,0,0,1,203.45,115.62Z" id="el0edzoyhm40pr" class="animable" style="transform-origin: 201.324px 115.625px;"></path><path d="M218.7,113.5h-7.29a2.36,2.36,0,0,0-2.31,2.12,1.92,1.92,0,0,0,1.94,2.13h7.29a2.37,2.37,0,0,0,2.31-2.13A1.92,1.92,0,0,0,218.7,113.5Z" id="elcengw270f2c" class="animable" style="transform-origin: 214.869px 115.625px;"></path></g></g><polygon points="150.5 124.5 152.75 124.5 152.94 122.25 150.69 122.25 150.5 124.5" style="fill: #003366; transform-origin: 151.72px 123.375px;" id="el8g8t7bwqit" class="animable"></polygon><polygon points="155.19 122.25 155 124.5 157.25 124.5 157.44 122.25 157.64 120 155.39 120 155.19 122.25" style="fill: #003366; transform-origin: 156.32px 122.25px;" id="eliorjrxalfsd" class="animable"></polygon><polygon points="160.09 117.75 159.89 120 159.69 122.25 159.5 124.5 161.75 124.5 161.94 122.25 162.14 120 162.34 117.75 160.09 117.75" style="fill: #003366; transform-origin: 160.92px 121.125px;" id="ela21wtmgtykw" class="animable"></polygon><path d="M256.83,117.9l-.14,1.65h-1.1l-.29,3.3h1.1l-.15,1.65h9.9l.58-6.6Zm4,4.95h-3.3l.29-3.3h3.3Z" style="fill: #003366; transform-origin: 261.015px 121.2px;" id="el6ruxn9drib4" class="animable"></path><g id="elqyyw1si343s"><g style="opacity: 0.4; transform-origin: 200.57px 257.444px;" class="animable" id="el8uhf4zmxup"><path d="M196,124.54,122.14,399.17a15.52,15.52,0,0,0,9.22,2.93h5.77l74.65-277.56Z" style="fill: rgb(255, 255, 255); transform-origin: 166.96px 263.32px;" id="eljrs81cot3tn" class="animable"></path><path d="M263.66,112.79H235.85A4,4,0,0,0,232,116l-.18.87a9.89,9.89,0,0,1-9.1,7.71L148.05,402.1H205l74-275.17A15.07,15.07,0,0,0,263.66,112.79Z" style="fill: rgb(255, 255, 255); transform-origin: 213.525px 257.444px;" id="eljfc06hw3qb" class="animable"></path></g></g></g><g id="freepik--Interface--inject-73" class="animable" style="transform-origin: 188.355px 258.615px;"><path d="M176.89,191H144.33a3.59,3.59,0,0,1-3.64-4l3.11-35.52a4.43,4.43,0,0,1,4.33-4H180.7a3.58,3.58,0,0,1,3.63,4L181.23,187A4.45,4.45,0,0,1,176.89,191Z" style="fill: rgb(255, 255, 255); transform-origin: 162.511px 169.24px;" id="el68gx5bgukff" class="animable"></path><path d="M259.87,222.18H188.74a3.59,3.59,0,0,1-3.64-4l5.84-66.74a4.43,4.43,0,0,1,4.33-4H266.4a3.6,3.6,0,0,1,3.64,4l-5.84,66.74A4.43,4.43,0,0,1,259.87,222.18Z" style="fill: rgb(255, 255, 255); transform-origin: 227.569px 184.81px;" id="el9c2pmn9266s" class="animable"></path><path d="M254.52,283.27H136.25a3.6,3.6,0,0,1-3.64-4l4.11-47a4.45,4.45,0,0,1,4.34-4H259.33a3.6,3.6,0,0,1,3.64,4l-4.11,47A4.45,4.45,0,0,1,254.52,283.27Z" style="fill: rgb(255, 255, 255); transform-origin: 197.79px 255.77px;" id="elxyy14znud9" class="animable"></path><path d="M246.14,379.06H127.87a3.6,3.6,0,0,1-3.64-4l7.15-81.69a4.43,4.43,0,0,1,4.34-4H254a3.58,3.58,0,0,1,3.63,4l-7.14,81.69A4.45,4.45,0,0,1,246.14,379.06Z" style="fill: rgb(255, 255, 255); transform-origin: 190.931px 334.215px;" id="el71qel9uwtd4" class="animable"></path><path d="M164.14,181.7H131.58a3.59,3.59,0,0,1-3.64-4l3.11-35.53a4.44,4.44,0,0,1,4.34-4H168a3.6,3.6,0,0,1,3.64,4l-3.11,35.53A4.44,4.44,0,0,1,164.14,181.7Z" style="fill: #003366; transform-origin: 149.789px 159.935px;" id="elb9gslhzz73u" class="animable"></path><g id="elfyan2uvjnt"><path d="M164.14,181.7H131.58a3.59,3.59,0,0,1-3.64-4l3.11-35.53a4.44,4.44,0,0,1,4.34-4H168a3.6,3.6,0,0,1,3.64,4l-3.11,35.53A4.44,4.44,0,0,1,164.14,181.7Z" style="fill: rgb(255, 255, 255); opacity: 0.4; transform-origin: 149.789px 159.935px;" class="animable" id="elispk6hg7kin"></path></g><g id="el2ayxx2rm79l"><path d="M168.59,142.19a.9.9,0,0,0-.9-1H135.12a1.1,1.1,0,0,0-1.07,1l-3.11,35.53a.89.89,0,0,0,.9,1h32.57a1.1,1.1,0,0,0,1.07-1Z" style="fill: rgb(255, 255, 255); opacity: 0.8; transform-origin: 149.764px 159.955px;" class="animable" id="el0tr9n9im0mk"></path></g><path d="M156.16,158.44c-.36,4.07-2.84,7.37-6.91,7.37s-6-3.3-5.61-7.37,2.83-7.37,6.9-7.37S156.51,154.37,156.16,158.44Z" style="fill: #003366; transform-origin: 149.896px 158.44px;" id="el5ilkjwjsacs" class="animable"></path><path d="M163.54,172.71a8.35,8.35,0,0,0-8.21-6.1H143a10.37,10.37,0,0,0-9.27,6.1l-2.59,5.7a.89.89,0,0,0,.67.29h32.57a1.08,1.08,0,0,0,.72-.29Z" style="fill: #003366; transform-origin: 148.12px 172.654px;" id="eluyfls6st8yo" class="animable"></path><path d="M228.58,369.06H110.31a3.6,3.6,0,0,1-3.64-4l7.15-81.69a4.43,4.43,0,0,1,4.33-4H236.42a3.6,3.6,0,0,1,3.64,4l-7.15,81.69A4.44,4.44,0,0,1,228.58,369.06Z" style="fill: #003366; transform-origin: 173.365px 324.215px;" id="el90v537ba4e6" class="animable"></path><g id="eloiees1ydiqb"><path d="M228.58,369.06H110.31a3.6,3.6,0,0,1-3.64-4l7.15-81.69a4.43,4.43,0,0,1,4.33-4H236.42a3.6,3.6,0,0,1,3.64,4l-7.15,81.69A4.44,4.44,0,0,1,228.58,369.06Z" style="fill: rgb(255, 255, 255); opacity: 0.4; transform-origin: 173.365px 324.215px;" class="animable" id="elu0ht98co0o"></path></g><path d="M236.16,282.39H117.89a1.08,1.08,0,0,0-1.07,1l-7.15,81.69a.89.89,0,0,0,.9,1H228.84a1.11,1.11,0,0,0,1.07-1l7.15-81.69A.89.89,0,0,0,236.16,282.39Z" style="fill: rgb(38, 50, 56); transform-origin: 173.365px 324.235px;" id="el9siw89tquwv" class="animable"></path><g id="elfusxoizaowc"><ellipse cx="173.36" cy="324.22" rx="16.17" ry="14.82" style="fill: #003366; transform-origin: 173.36px 324.22px; transform: rotate(-43.75deg);" class="animable" id="elj5864qwwobo"></ellipse></g><g id="eln6w2p4092wt"><polygon points="181.46 324.22 168.57 332.12 169.96 316.33 181.46 324.22" style="fill: rgb(255, 255, 255); opacity: 0.9; transform-origin: 175.015px 324.225px;" class="animable" id="eltsvydqs4zq8"></polygon></g><g id="elm8rzkrr9r6i"><polygon points="215.64 353.97 116.51 353.97 116.58 353.14 215.71 353.14 215.64 353.97" style="fill: rgb(255, 255, 255); opacity: 0.8; transform-origin: 166.11px 353.555px;" class="animable" id="elgnx6cvoh79p"></polygon></g><path d="M154.56,353.55a1.24,1.24,0,0,1-1.22,1.13H115.57a1,1,0,0,1-1-1.13h0a1.24,1.24,0,0,1,1.22-1.12h37.77a1,1,0,0,1,1,1.12Z" style="fill: #003366; transform-origin: 134.564px 353.555px;" id="elmmps0i6yib" class="animable"></path><g id="elgg0offmu64v"><g style="opacity: 0.8; transform-origin: 222.045px 353.555px;" class="animable" id="elh2ix8ozwkfj"><polygon points="224.91 351.1 226.18 351.1 226.09 352.2 227.16 352.2 227.32 350.43 224.97 350.43 224.91 351.1" style="fill: rgb(255, 255, 255); transform-origin: 226.115px 351.315px;" id="elx3eaqy3ld1b" class="animable"></polygon><polygon points="218.24 352.2 218.34 351.1 219.61 351.1 219.67 350.43 217.32 350.43 217.16 352.2 218.24 352.2" style="fill: rgb(255, 255, 255); transform-origin: 218.415px 351.315px;" id="elyfqdu47s6t" class="animable"></polygon><polygon points="219.19 356.01 217.91 356.01 218.01 354.91 216.93 354.91 216.77 356.68 219.13 356.68 219.19 356.01" style="fill: rgb(255, 255, 255); transform-origin: 217.98px 355.795px;" id="elbgeivsuwihu" class="animable"></polygon><polygon points="225.85 354.91 225.75 356.01 224.48 356.01 224.42 356.68 226.77 356.68 226.93 354.91 225.85 354.91" style="fill: rgb(255, 255, 255); transform-origin: 225.675px 355.795px;" id="ela1lh4sq1i5q" class="animable"></polygon></g></g><g id="el5pniuwdhk3g"><g style="opacity: 0.8; transform-origin: 170.165px 360.085px;" class="animable" id="elsbd3l6jeq"><g id="elw4pob56x1pa"><polygon points="167.66 362.44 171.5 360.09 168.07 357.73 167.66 362.44" style="fill: rgb(255, 255, 255); opacity: 0.9; transform-origin: 169.58px 360.085px;" class="animable" id="ela9j0cdt4vk"></polygon></g><g id="el9xr48v0rzo"><polygon points="171.69 357.98 171.5 360.09 171.32 362.19 172.3 362.19 172.67 357.98 171.69 357.98" style="fill: rgb(255, 255, 255); opacity: 0.9; transform-origin: 171.995px 360.085px;" class="animable" id="elhk4zeuw69vb"></polygon></g></g></g><g id="elv9jeq9tg6wf"><g style="opacity: 0.8; transform-origin: 178.02px 360.085px;" class="animable" id="elauhma82i32w"><g id="elc0rbjbco5dv"><polygon points="176.07 362.19 177.35 362.19 177.72 357.98 176.44 357.98 176.07 362.19" style="fill: rgb(255, 255, 255); opacity: 0.9; transform-origin: 176.895px 360.085px;" class="animable" id="el8xwjjph6wx8"></polygon></g><g id="elez71qfe3l2w"><polygon points="178.7 357.98 178.33 362.19 179.6 362.19 179.97 357.98 178.7 357.98" style="fill: rgb(255, 255, 255); opacity: 0.9; transform-origin: 179.15px 360.085px;" class="animable" id="elfq687phoal4"></polygon></g></g></g><g id="eletksm2rxj45"><polygon points="164.3 360.09 160.46 362.44 160.87 357.73 164.3 360.09" style="fill: rgb(255, 255, 255); opacity: 0.8; transform-origin: 162.38px 360.085px;" class="animable" id="el8o7fnais5cl"></polygon></g><path d="M236.3,272.26H118a3.6,3.6,0,0,1-3.64-4l4.11-47a4.45,4.45,0,0,1,4.34-4H241.11a3.59,3.59,0,0,1,3.64,4l-4.11,47A4.45,4.45,0,0,1,236.3,272.26Z" style="fill: #003366; transform-origin: 179.556px 244.76px;" id="elydg4078xfd" class="animable"></path><g id="elxgyytwk9pi"><path d="M236.3,272.26H118a3.6,3.6,0,0,1-3.64-4l4.11-47a4.45,4.45,0,0,1,4.34-4H241.11a3.59,3.59,0,0,1,3.64,4l-4.11,47A4.45,4.45,0,0,1,236.3,272.26Z" style="fill: rgb(255, 255, 255); opacity: 0.4; transform-origin: 179.556px 244.76px;" class="animable" id="el063kkwa1olnl"></path></g><g id="el4ldw711cx03"><path d="M240.89,219.8H122.62a1.65,1.65,0,0,0-1.62,1.48l-4.11,47a1.35,1.35,0,0,0,1.36,1.49H236.52a1.67,1.67,0,0,0,1.62-1.49l4.11-47A1.34,1.34,0,0,0,240.89,219.8Z" style="fill: rgb(255, 255, 255); opacity: 0.3; transform-origin: 179.57px 244.785px;" class="animable" id="elf4qqc0doy49"></path></g><g id="ell5bnbfn0ohf"><polygon points="146.78 244.78 203.78 244.78 200.98 231.04 197.23 219.8 139.72 219.8 146.78 244.78" style="fill: rgb(255, 255, 255); opacity: 0.4; transform-origin: 171.75px 232.29px;" class="animable" id="elcnx9h3mcpea"></polygon></g><g id="elu4i0bjf6t9i"><path d="M146.78,244.78l-27.92,1-2,22.49a1.35,1.35,0,0,0,1.36,1.49h35.64Z" style="fill: rgb(255, 255, 255); opacity: 0.4; transform-origin: 135.356px 257.27px;" class="animable" id="elfa04tu7v8jw"></path></g><polygon points="238.78 260.88 239.25 255.53 206.61 242.57 203.45 233.41 213.46 219.8 208.69 219.8 202.16 228.68 199.9 219.8 195.63 219.8 198.96 233.03 202.16 242.28 148.16 242.28 142.25 219.8 138.01 219.8 143.92 242.28 119.17 242.28 118.73 247.28 145.24 247.28 151.15 269.76 155.38 269.76 149.47 247.28 179.14 247.28 194.69 269.76 199.76 269.76 184.21 247.28 204.51 247.28 238.78 260.88" style="fill: rgb(255, 255, 255); transform-origin: 178.99px 244.78px;" id="el4bd6rzp6be4" class="animable"></polygon><g id="el5ldor061tl"><ellipse cx="181.98" cy="238.72" rx="6.25" ry="1.37" style="opacity: 0.2; transform-origin: 181.98px 238.72px; transform: rotate(-0.25deg);" class="animable" id="el185hdxrzown"></ellipse></g><path d="M183.37,222.8a7,7,0,0,0-6.8,6.25c-.3,3.45,5.36,10.25,5.36,10.25s6.84-6.8,7.14-10.25A5.64,5.64,0,0,0,183.37,222.8Zm-.8,9.1a2.57,2.57,0,0,1-2.6-2.85,3.18,3.18,0,0,1,3.1-2.85,2.57,2.57,0,0,1,2.6,2.85A3.16,3.16,0,0,1,182.57,231.9Z" style="fill: #003366; transform-origin: 182.831px 231.05px;" id="elm5ob42xwp3" class="animable"></path></g><g id="freepik--Character--inject-73" class="animable" style="transform-origin: 303.279px 261.186px;"><polygon points="335.46 380.99 333.89 398.95 325.75 398.95 324.91 380.99 335.46 380.99" style="fill: rgb(185, 121, 100); transform-origin: 330.185px 389.97px;" id="elir8kv4a27uj" class="animable"></polygon><path d="M322.09,398.51a3.62,3.62,0,0,1-2.5-.7.77.77,0,0,1,0-.88,1,1,0,0,1,.64-.46c1.43-.37,4.38,1.39,4.51,1.46a.23.23,0,0,1,.1.22.23.23,0,0,1-.17.16A15.26,15.26,0,0,1,322.09,398.51Zm-1.33-1.69a1.2,1.2,0,0,0-.38.05.56.56,0,0,0-.41.27c-.15.25-.1.37,0,.44.38.57,2.54.62,4.13.45A9.25,9.25,0,0,0,320.76,396.82Z" style="fill: #003366; transform-origin: 322.147px 397.472px;" id="ely6vgl5ia5hm" class="animable"></path><path d="M324.68,398.31h-.09c-1-.47-3-2.36-2.83-3.32,0-.23.2-.51.76-.55a1.48,1.48,0,0,1,1.12.36c1.07.91,1.26,3.22,1.27,3.33a.19.19,0,0,1-.09.18A.23.23,0,0,1,324.68,398.31Zm-2-3.5h-.12c-.36,0-.39.17-.4.22-.06.58,1.26,2.05,2.3,2.7a4.7,4.7,0,0,0-1.09-2.64,1,1,0,0,0-.69-.27Z" style="fill: #003366; transform-origin: 323.33px 396.377px;" id="el99oym1vwrj" class="animable"></path><path d="M325.6,397.13l9.32.16a.74.74,0,0,1,.72.6l1.56,7.61a1.26,1.26,0,0,1-1,1.48,1.23,1.23,0,0,1-.27,0c-3.35-.11-6.34-.35-10.52-.41-4.94-.08-3.69.53-9.5.51-3.5,0-4.07-4-2.58-4.17,6.8-.74,7.54-2.77,10.2-5.16A3,3,0,0,1,325.6,397.13Z" style="fill: rgb(38, 50, 56); transform-origin: 324.891px 402.101px;" id="elqthwpdftcu" class="animable"></path><path d="M311,224.38l13.33,163.28h11.1s6.47-45.26,2-73.72a34.38,34.38,0,0,1-.18-9.12c1.38-12.26,4.76-43.7,4.31-54.33,0,0,5.65-12.78,1.16-30.55H311Z" style="fill: rgb(38, 50, 56); transform-origin: 327.727px 303.8px;" id="el7k0xzj47wim" class="animable"></path><polygon points="337.04 384.6 336.58 387.66 337.59 390.16 323.52 390.16 323.89 387.66 322.69 384.6 337.04 384.6" style="fill: rgb(38, 50, 56); transform-origin: 330.14px 387.38px;" id="elo3vru0ro1uj" class="animable"></polygon><g id="elfuny56fgne5"><polygon points="337.04 384.6 336.58 387.66 337.59 390.16 323.52 390.16 323.89 387.66 322.69 384.6 337.04 384.6" style="fill: rgb(255, 255, 255); opacity: 0.3; transform-origin: 330.14px 387.38px;" class="animable" id="elx386yo9mql"></polygon></g><g id="elfzsylpcm8ub"><path d="M336.75,239.7l5.84,7.83a24.75,24.75,0,0,1-1,3c.28,6.65-.69,18.68-1.72,29.08-11.33-26.56-8.1-36.87-8.1-36.87Z" style="opacity: 0.5; transform-origin: 336.967px 259.655px;" class="animable" id="elw8jnt3wi0n"></path></g><path d="M278.49,160.9l-3.94-6.66L277,150a2.18,2.18,0,0,0,.15-1.83l-.19-.48a2.12,2.12,0,0,0-1.93-1.36l-3.86-.11a2.12,2.12,0,0,0-1.92,1.11l-.79,1.43a2.5,2.5,0,0,0-.07,2.26l1.66,3.59,3.08,8.26Z" style="fill: rgb(185, 121, 100); transform-origin: 273.322px 154.545px;" id="elfjk1luwidkj" class="animable"></path><path d="M309.84,159.73,287.35,176.1l-10.57-19.77-6,2.6s9.25,30,14.63,28.75S306,179,310.91,173.81c2.49-2.59,4.38-7.36,1.92-13.26A2,2,0,0,0,309.84,159.73Z" style="fill: #003366; transform-origin: 292.38px 172.024px;" id="eljn4kcd2nh2d" class="animable"></path><path d="M318.25,120.76s-7.95,2.08-4.27,11.66c0,0,3.95-1,4.6-3.6s1.25-6.15,1.25-6.15Z" style="fill: rgb(38, 50, 56); transform-origin: 316.419px 126.59px;" id="el852grbou8ff" class="animable"></path><g id="el0pyuaudihdmg"><path d="M318.25,120.76s-7.95,2.08-4.27,11.66c0,0,3.95-1,4.6-3.6s1.25-6.15,1.25-6.15Z" style="opacity: 0.3; transform-origin: 316.419px 126.59px;" class="animable" id="elxezftbkif1m"></path></g><polygon points="337.01 158.78 322.5 158.31 316.5 159.17 315.69 170.11 327.38 174 339.85 171.51 340.5 160.97 339.61 158.87 337.01 158.78" style="fill: rgb(185, 121, 100); transform-origin: 328.095px 166.155px;" id="elnr6vz1b48n" class="animable"></polygon><polygon points="375.44 380.53 380.81 398.95 387.8 398.95 386.39 379.98 375.44 380.53" style="fill: rgb(185, 121, 100); transform-origin: 381.62px 389.465px;" id="eloezl8quy1ef" class="animable"></polygon><path d="M376,398.51c-1.06,0-2.14-.23-2.46-.7a.77.77,0,0,1,.08-.88,1.12,1.12,0,0,1,.66-.46c1.46-.37,4.31,1.39,4.44,1.46a.2.2,0,0,1,.08.22.23.23,0,0,1-.17.16A15.45,15.45,0,0,1,376,398.51Zm-1.24-1.69a1.31,1.31,0,0,0-.39.05.59.59,0,0,0-.42.27c-.16.25-.12.37-.07.44.36.57,2.51.62,4.11.45A8.77,8.77,0,0,0,374.74,396.82Z" style="fill: #003366; transform-origin: 376.123px 397.465px;" id="el8ahbjqdgsng" class="animable"></path><path d="M378.58,398.31h-.09c-1-.47-2.91-2.36-2.66-3.32,0-.23.23-.51.79-.55a1.41,1.41,0,0,1,1.1.36c1,.91,1.1,3.22,1.1,3.33a.22.22,0,0,1-.1.18A.23.23,0,0,1,378.58,398.31Zm-1.85-3.5h-.11c-.37,0-.4.17-.42.22-.09.58,1.15,2.05,2.16,2.7a4.48,4.48,0,0,0-.95-2.64,1,1,0,0,0-.68-.27Z" style="fill: #003366; transform-origin: 377.314px 396.376px;" id="eln04xcongui" class="animable"></path><path d="M379.56,397.13l9.31.16a.71.71,0,0,1,.7.6l1.15,7.61a1.33,1.33,0,0,1-1,1.48,1.14,1.14,0,0,1-.26,0c-3.36-.11-6.33-.35-10.51-.41-4.93-.08-3.72.53-9.52.51-3.5,0-3.86-4-2.37-4.17,6.84-.74,7.69-2.77,10.47-5.16A3.18,3.18,0,0,1,379.56,397.13Z" style="fill: rgb(38, 50, 56); transform-origin: 378.482px 402.104px;" id="eldqz5bci00q" class="animable"></path><path d="M323.6,219.94l52.85,167.72H387.6s-5.33-53.92-15-75a26.27,26.27,0,0,1-2.24-8.24c-1-10.35-3.68-34.83-6.69-48.31a30,30,0,0,1-.69-5.17c-.26-5.78-1.7-20.2-9.22-31Z" style="fill: rgb(38, 50, 56); transform-origin: 355.6px 303.8px;" id="elg15ldrabx4" class="animable"></path><polygon points="389.57 384.6 388.95 387.66 389.83 390.16 375.76 390.16 375.15 387.66 374.11 384.6 389.57 384.6" style="fill: rgb(38, 50, 56); transform-origin: 381.97px 387.38px;" id="elibfa7oek0a" class="animable"></polygon><g id="el0df407iyrpie"><polygon points="389.57 384.6 388.95 387.66 389.83 390.16 375.76 390.16 375.15 387.66 374.11 384.6 389.57 384.6" style="fill: rgb(255, 255, 255); opacity: 0.3; transform-origin: 381.97px 387.38px;" class="animable" id="elznc12t736xs"></polygon></g><path d="M338.83,160.59s-4.65,7.1-12.32,6.75c-7.26-.33-8.51-7.58-8.51-7.58l-.92,11.08-.91,26.83,1.16,11.38-.08,12.54a105.08,105.08,0,0,0,20.5-.33s1.33-46,1.08-45.75,2.17-8,2.17-8v-3.34Z" style="fill: #003366; transform-origin: 328.585px 190.85px;" id="el5xf0w3kypd4" class="animable"></path><g id="eltm15uf7hw"><path d="M338.83,160.59s-4.65,7.1-12.32,6.75c-7.26-.33-8.51-7.58-8.51-7.58l-.92,11.08-.91,26.83,1.16,11.38-.08,12.54a105.08,105.08,0,0,0,20.5-.33s1.33-46,1.08-45.75,2.17-8,2.17-8v-3.34Z" style="fill: rgb(255, 255, 255); opacity: 0.6; transform-origin: 328.585px 190.85px;" class="animable" id="elaawr1eypbyl"></path></g><path d="M331.44,157.93s24-1.48,25,5.76-6,22.07-4.84,32.23,6.84,25.41,6.84,25.41-18.17,12.09-24.5,8.09-4.65-49.83-4.65-49.83,13.48-19.17,5.9-20.17-16.25-1.8-15.59,4.27a138.4,138.4,0,0,0,3.11,15.4s-.56,50.84-5.94,50.17-8.1-6.5-8.1-6.5a51,51,0,0,0,0-18.69c-1.9-10.48-5.38-18.72-3.49-27s3.49-18.86,7.49-19C316.08,157.83,331.44,157.93,331.44,157.93Z" style="fill: #003366; transform-origin: 331.537px 194.018px;" id="elr8453u73kmt" class="animable"></path><g id="el9bfayp9dlbl"><path d="M331.44,157.93s24-1.48,25,5.76-6,22.07-4.84,32.23,6.84,25.41,6.84,25.41-18.17,12.09-24.5,8.09-4.65-49.83-4.65-49.83,13.48-19.17,5.9-20.17-16.25-1.8-15.59,4.27a138.4,138.4,0,0,0,3.11,15.4s-.56,50.84-5.94,50.17-8.1-6.5-8.1-6.5a51,51,0,0,0,0-18.69c-1.9-10.48-5.38-18.72-3.49-27s3.49-18.86,7.49-19C316.08,157.83,331.44,157.93,331.44,157.93Z" style="opacity: 0.2; transform-origin: 331.537px 194.018px;" class="animable" id="elp4oklsgs0d9"></path></g><path d="M321.3,157.89c5,0,10.14,0,10.14,0s3.07-.19,7.05-.1c1.58,1.09,3.68,3.6,2,8.93L337,168.09l.63,3.42s-4,6.34-8.41,8.74c0-.42,0-.66,0-.66s13.48-19.17,5.9-20.17-16.25-1.8-15.59,4.27a138.4,138.4,0,0,0,3.11,15.4v.28c-2.14-1.9-4-5.28-5.28-9.28l1.42-3.94-3.14-1.73A8.41,8.41,0,0,1,321.3,157.89Z" style="fill: #003366; transform-origin: 328.375px 169.008px;" id="elce0vqkw6yuo" class="animable"></path><g id="elidu9cmbnqn8"><path d="M321.3,157.89c5,0,10.14,0,10.14,0s3.07-.19,7.05-.1c1.58,1.09,3.68,3.6,2,8.93L337,168.09l.63,3.42s-4,6.34-8.41,8.74c0-.42,0-.66,0-.66s13.48-19.17,5.9-20.17-16.25-1.8-15.59,4.27a138.4,138.4,0,0,0,3.11,15.4v.28c-2.14-1.9-4-5.28-5.28-9.28l1.42-3.94-3.14-1.73A8.41,8.41,0,0,1,321.3,157.89Z" style="fill: rgb(255, 255, 255); opacity: 0.2; transform-origin: 328.375px 169.008px;" class="animable" id="elt6nht5hv9tc"></path></g><path d="M322.68,166c-3.2-3.37-1.23-5.8-1.23-5.8,5.7-1.94,5.18-6.22,3.87-10.19l9.19-9.38c-.55,5-.75,16.48,2.52,20.48V162a78,78,0,0,0-8.64,4Z" style="fill: rgb(185, 121, 100); transform-origin: 328.94px 153.315px;" id="el43yp8lqz9xx" class="animable"></path><g id="el5g3gl0v4lw6"><path d="M325.32,150l7.3-7.45,1.69.61c-.06.9-.09,1.88-.11,2.91-.92,1.89-3.14,4.55-8.33,5.89C325.72,151.29,325.53,150.63,325.32,150Z" style="opacity: 0.1; transform-origin: 329.815px 147.255px;" class="animable" id="elluh3zr9u6nd"></path></g><path d="M339.19,132.33c-2.23,8.5-3,12.14-8.19,15.7-7.84,5.35-17.78.77-18.15-8.22-.33-8.09,3.35-20.62,12.44-22.38a12,12,0,0,1,13.9,14.9Z" style="fill: rgb(185, 121, 100); transform-origin: 326.217px 133.759px;" id="eltn3t01a8e5p" class="animable"></path><path d="M319,134.52a19.23,19.23,0,0,1-3.37,4,3,3,0,0,0,2.39,1Z" style="fill: rgb(162, 78, 63); transform-origin: 317.315px 137.022px;" id="elp2tzy9m0m2" class="animable"></path><path d="M328.06,131.39a.35.35,0,0,0,.29-.52h0a4.09,4.09,0,0,0-3.15-2,.36.36,0,0,0-.36.34.35.35,0,0,0,.33.36,3.39,3.39,0,0,1,2.59,1.71A.35.35,0,0,0,328.06,131.39Z" style="fill: rgb(38, 50, 56); transform-origin: 326.617px 130.131px;" id="el1vv1hcsuxcc" class="animable"></path><path d="M314,128.82a.34.34,0,0,0,.17,0,3.39,3.39,0,0,1,3.08-.2.35.35,0,0,0,.47-.14h0a.36.36,0,0,0-.16-.47,4.11,4.11,0,0,0-3.75.21.35.35,0,0,0-.15.47.35.35,0,0,0,.33.19Z" style="fill: rgb(38, 50, 56); transform-origin: 315.687px 128.268px;" id="elbmsgjkia5g" class="animable"></path><path d="M321.58,141.8a7.17,7.17,0,0,1-1.22-.1.22.22,0,0,1-.17-.25h0a.21.21,0,0,1,.24-.18,5.83,5.83,0,0,0,5-1.4.22.22,0,0,1,.32.29A6,6,0,0,1,321.58,141.8Z" style="fill: rgb(38, 50, 56); transform-origin: 322.984px 140.813px;" id="el0hvde8df9sfn" class="animable"></path><path d="M336.33,139a10.76,10.76,0,0,1-2.58-8.63s-3.42-3.5-3.25-7.25c0,0-1,3,0,5.12,0,0-8.87-.65-8.66-5.12,0,0-.58,2.25.75,3.42,0,0-7.88.33-6.82-3.75s7.25-6.09,7.25-6.09,5.88-5,14,3.84c0,0,9.58,6,2.79,16Z" style="fill: rgb(38, 50, 56); transform-origin: 328.957px 127.146px;" id="eljf7ftkk6jt" class="animable"></path><path d="M339.88,139.53a6.37,6.37,0,0,1-3.77,3.13c-2.15.65-3.27-1.26-2.71-3.32.5-1.85,2.23-4.42,4.42-4.17a2.88,2.88,0,0,1,2.06,4.36Z" style="fill: rgb(185, 121, 100); transform-origin: 336.781px 138.971px;" id="elr87gupwuxbc" class="animable"></path><path d="M325.38,133.31c-.07.73-.52,1.28-1,1.24s-.8-.68-.72-1.42.53-1.29,1-1.24S325.46,132.57,325.38,133.31Z" style="fill: rgb(46, 53, 58); transform-origin: 324.52px 133.219px;" id="elu19mucnnjfn" class="animable"></path><path d="M317.08,132.44c-.07.73-.52,1.28-1,1.24s-.81-.68-.73-1.42.53-1.29,1-1.24S317.17,131.7,317.08,132.44Z" style="fill: rgb(46, 53, 58); transform-origin: 316.216px 132.349px;" id="elwxdyihhojzj" class="animable"></path><path d="M316.56,131.08l-1.71-.69S315.61,131.86,316.56,131.08Z" style="fill: rgb(46, 53, 58); transform-origin: 315.705px 130.849px;" id="elg2xtng7804o" class="animable"></path><path d="M324.86,132l-1.71-.69S323.92,132.73,324.86,132Z" style="fill: rgb(46, 53, 58); transform-origin: 324.005px 131.759px;" id="elw8g38w0bc7" class="animable"></path><path d="M335.59,146.64a2.84,2.84,0,0,0,2.09-4.76l-.37.33a2.34,2.34,0,1,1-1.72-.75,2.22,2.22,0,0,1,1,.2l.21-.46a2.9,2.9,0,0,0-1.16-.24,2.84,2.84,0,1,0,0,5.68Z" style="fill: #003366; transform-origin: 335.611px 143.8px;" id="eltwf1vthty8b" class="animable"></path><g id="elvw8edbypiug"><g style="opacity: 0.6; transform-origin: 335.611px 143.8px;" class="animable" id="elpaygr3nzn1"><path d="M335.59,146.64a2.84,2.84,0,0,0,2.09-4.76l-.37.33a2.34,2.34,0,1,1-1.72-.75,2.22,2.22,0,0,1,1,.2l.21-.46a2.9,2.9,0,0,0-1.16-.24,2.84,2.84,0,1,0,0,5.68Z" style="fill: rgb(255, 255, 255); transform-origin: 335.611px 143.8px;" id="elimbr6a0m1ek" class="animable"></path></g></g><path d="M305,209.05l-8.12,4.49-8.59-1.06a1.29,1.29,0,0,0-.9.21l-3.23,2.15a1.33,1.33,0,0,0-.42.43l-.93,1.59a1.34,1.34,0,0,0,1,2,54.31,54.31,0,0,0,7.38,1.08,47.36,47.36,0,0,0,6.42-1.37L309,214.49Z" style="fill: rgb(185, 121, 100); transform-origin: 295.815px 214.495px;" id="el24b07y6wrhg" class="animable"></path><path d="M353.5,161.69c-4.66-3-10.18,4-14.71,13.74l-8.52,18.37-31.94,18.38,2.19,5.86s30.73-8.62,38.23-17.87S359.88,165.84,353.5,161.69Z" style="fill: #003366; transform-origin: 326.741px 189.514px;" id="eldfzrmswtbp" class="animable"></path><path d="M220.29,215.58H287a5.43,5.43,0,0,0,5.29-4.87l4.86-55.53a4.4,4.4,0,0,0-4.44-4.87H226a5.41,5.41,0,0,0-5.29,4.87l-4.86,55.53A4.39,4.39,0,0,0,220.29,215.58Z" style="fill: #003366; transform-origin: 256.499px 182.945px;" id="el2zp6ok00tzg" class="animable"></path><g id="el21k0z0od119"><g style="opacity: 0.4; transform-origin: 256.499px 182.945px;" class="animable" id="elrj5ndwfexw"><path d="M220.29,215.58H287a5.43,5.43,0,0,0,5.29-4.87l4.86-55.53a4.4,4.4,0,0,0-4.44-4.87H226a5.41,5.41,0,0,0-5.29,4.87l-4.86,55.53A4.39,4.39,0,0,0,220.29,215.58Z" style="fill: rgb(255, 255, 255); transform-origin: 256.499px 182.945px;" id="el7xx5ytfp27s" class="animable"></path></g></g><path d="M225.62,153.24a2,2,0,0,0-2,1.82l-4.88,55.77a1.65,1.65,0,0,0,1.66,1.82h67a2,2,0,0,0,2-1.82l4.88-55.77a1.64,1.64,0,0,0-1.66-1.82Z" style="fill: #003366; transform-origin: 256.511px 182.945px;" id="elq72i7z57zj" class="animable"></path><g id="elrtlcwvyl60g"><path d="M225.62,153.24a2,2,0,0,0-2,1.82l-4.88,55.77a1.65,1.65,0,0,0,1.66,1.82h67a2,2,0,0,0,2-1.82l4.88-55.77a1.64,1.64,0,0,0-1.66-1.82Z" style="fill: rgb(255, 255, 255); opacity: 0.8; transform-origin: 256.511px 182.945px;" class="animable" id="elncndyvm0qk"></path></g><path d="M239.8,181.12l-20.92,28.41-.12,1.3a1.65,1.65,0,0,0,1.66,1.82H257.5Z" style="fill: #003366; transform-origin: 238.126px 196.885px;" id="el1u7sa2fzrwv" class="animable"></path><path d="M289.88,205,273.76,172l-27,40.7h40.6a2,2,0,0,0,2-1.82Z" style="fill: #003366; transform-origin: 268.32px 192.35px;" id="elmykubg1mbaf" class="animable"></path><g id="elo8hexouvt18"><path d="M289.88,205,273.76,172l-27,40.7h40.6a2,2,0,0,0,2-1.82Z" style="fill: rgb(255, 255, 255); opacity: 0.2; transform-origin: 268.32px 192.35px;" class="animable" id="el6hstt92ijpr"></path></g><path d="M262.65,167.19a5.3,5.3,0,0,1-5.18,4.76,4.3,4.3,0,0,1-4.35-4.76,5.3,5.3,0,0,1,5.18-4.76A4.3,4.3,0,0,1,262.65,167.19Z" style="fill: #003366; transform-origin: 257.885px 167.19px;" id="elmbksbq4xka" class="animable"></path></g><defs>     <filter id="active" height="200%">         <feMorphology in="SourceAlpha" result="DILATED" operator="dilate" radius="2"></feMorphology>                <feFlood flood-color="#32DFEC" flood-opacity="1" result="PINK"></feFlood>        <feComposite in="PINK" in2="DILATED" operator="in" result="OUTLINE"></feComposite>        <feMerge>            <feMergeNode in="OUTLINE"></feMergeNode>            <feMergeNode in="SourceGraphic"></feMergeNode>        </feMerge>    </filter>    <filter id="hover" height="200%">        <feMorphology in="SourceAlpha" result="DILATED" operator="dilate" radius="2"></feMorphology>                <feFlood flood-color="#ff0000" flood-opacity="0.5" result="PINK"></feFlood>        <feComposite in="PINK" in2="DILATED" operator="in" result="OUTLINE"></feComposite>        <feMerge>            <feMergeNode in="OUTLINE"></feMergeNode>            <feMergeNode in="SourceGraphic"></feMergeNode>        </feMerge>            <feColorMatrix type="matrix" values="0   0   0   0   0                0   1   0   0   0                0   0   0   0   0                0   0   0   1   0 "></feColorMatrix>    </filter></defs></svg>